<svg width="30" height="30" viewBox="0 0 30 30" fill="none" xmlns="http://www.w3.org/2000/svg">
<path d="M13 16.8125H17L17.75 18.8438C17.8125 19.0104 17.9117 19.1408 18.0475 19.235C18.1833 19.3292 18.3342 19.3758 18.5 19.375C18.7917 19.375 19.0158 19.2604 19.1725 19.0313C19.3292 18.8021 19.355 18.5521 19.25 18.2813L16.0625 9.90625C16 9.73958 15.9012 9.60958 15.7662 9.51625C15.6312 9.42292 15.48 9.37583 15.3125 9.375H14.6875C14.5208 9.375 14.3696 9.42208 14.2338 9.51625C14.0979 9.61042 13.9992 9.74042 13.9375 9.90625L10.7812 18.3125C10.6771 18.5625 10.6979 18.8021 10.8438 19.0313C10.9896 19.2604 11.2083 19.375 11.5 19.375C11.6667 19.375 11.8179 19.3283 11.9537 19.235C12.0896 19.1417 12.1883 19.0113 12.25 18.8438L13 16.8125ZM13.5 15.375L14.9375 11.25H15.0625L16.5 15.375H13.5ZM15 27.5C13.2708 27.5 11.6458 27.1717 10.125 26.515C8.60417 25.8583 7.28125 24.9679 6.15625 23.8438C5.03125 22.7196 4.14083 21.3967 3.485 19.875C2.82917 18.3533 2.50083 16.7283 2.5 15C2.5 14.3333 2.55208 13.6667 2.65625 13C2.76042 12.3333 2.91667 11.6771 3.125 11.0313C3.22917 10.6979 3.44292 10.4742 3.76625 10.36C4.08958 10.2458 4.39667 10.2717 4.6875 10.4375C5 10.6042 5.22417 10.8492 5.36 11.1725C5.49583 11.4958 5.51125 11.8342 5.40625 12.1875C5.28125 12.6458 5.18208 13.1096 5.10875 13.5788C5.03542 14.0479 4.99917 14.5217 5 15C5 17.7917 5.96875 20.1563 7.90625 22.0938C9.84375 24.0313 12.2083 25 15 25C17.7917 25 20.1562 24.0313 22.0938 22.0938C24.0312 20.1563 25 17.7917 25 15C25 12.2083 24.0312 9.84375 22.0938 7.90625C20.1562 5.96875 17.7917 5 15 5C14.5 5 14.0054 5.03625 13.5162 5.10875C13.0271 5.18125 12.5425 5.29083 12.0625 5.4375C11.7083 5.54167 11.375 5.53125 11.0625 5.40625C10.75 5.28125 10.5208 5.0625 10.375 4.75C10.2292 4.4375 10.2237 4.12 10.3587 3.7975C10.4937 3.475 10.7283 3.26125 11.0625 3.15625C11.6875 2.92708 12.3333 2.76042 13 2.65625C13.6667 2.55208 14.3333 2.5 15 2.5C16.7292 2.5 18.3542 2.82833 19.875 3.485C21.3958 4.14167 22.7188 5.03208 23.8438 6.15625C24.9688 7.28042 25.8596 8.60333 26.5162 10.125C27.1729 11.6467 27.5008 13.2717 27.5 15C27.4992 16.7283 27.1708 18.3533 26.515 19.875C25.8592 21.3967 24.9688 22.7196 23.8438 23.8438C22.7188 24.9679 21.3958 25.8588 19.875 26.5163C18.3542 27.1738 16.7292 27.5017 15 27.5ZM6.875 8.75C6.35417 8.75 5.91167 8.56792 5.5475 8.20375C5.18333 7.83958 5.00083 7.39667 5 6.875C4.99917 6.35333 5.18167 5.91083 5.5475 5.5475C5.91333 5.18417 6.35583 5.00167 6.875 5C7.39417 4.99833 7.83708 5.18083 8.20375 5.5475C8.57042 5.91417 8.7525 6.35667 8.75 6.875C8.7475 7.39333 8.56542 7.83625 8.20375 8.20375C7.84208 8.57125 7.39917 8.75333 6.875 8.75Z" fill="#27AE60"/>
</svg>
