<svg width="28" height="28" viewBox="0 0 28 28" fill="none" xmlns="http://www.w3.org/2000/svg">
<g clip-path="url(#clip0_1170_42214)">
<path d="M7.77734 22H6V20.2227H7.77734V22ZM22.001 22H20.2227V20.2217H22.001V22ZM18.4443 18.4443H20.2217V20.2227H18.4434V18.4443H16.667V16.667H18.4443V18.4443ZM9.55469 20.2217H7.77734V18.4443H9.55469V20.2217ZM11.334 11.333H13.1113V13.1104H14.8887V14.8896H13.1113V16.667H11.334V18.4443H9.55664V16.667H11.333V14.8887H13.1104V13.1113H11.333V11.333H9.55664V9.55566H11.334V11.333ZM16.667 16.666H14.8896V14.8887H16.667V16.666ZM16.667 13.1113H14.8896V11.334H16.667V13.1113ZM20.2217 9.55566H18.4443V11.333H16.667V9.55566H18.4434V7.77734H20.2217V9.55566ZM9.55469 9.55566H7.77734V7.77832H9.55469V9.55566ZM22.001 7.77832H20.2227V6H22.001V7.77832ZM7.77734 7.77734H6V6H7.77734V7.77734Z" fill="#D9D9D9"/>
</g>
<defs>
<clipPath id="clip0_1170_42214">
<rect width="28" height="28" fill="white"/>
</clipPath>
</defs>
</svg>
