<svg width="28" height="28" viewBox="0 0 28 28" fill="none" xmlns="http://www.w3.org/2000/svg">
<path d="M11.6667 23.3337L10.2083 20.417L7 21.0003" stroke="#D2D7DF" stroke-width="2.2" stroke-linecap="round" stroke-linejoin="round"/>
<path d="M11.6667 4.66699L10.2083 7.58366L7 7.00033" stroke="#D2D7DF" stroke-width="2.2" stroke-linecap="round" stroke-linejoin="round"/>
<path d="M16.334 23.3337L17.7923 20.417L21.0007 21.0003" stroke="#D2D7DF" stroke-width="2.2" stroke-linecap="round" stroke-linejoin="round"/>
<path d="M16.334 4.66699L17.7923 7.58366L21.0007 7.00033" stroke="#D2D7DF" stroke-width="2.2" stroke-linecap="round" stroke-linejoin="round"/>
<path d="M19.8327 24.5L16.3327 17.5H11.666" stroke="#D2D7DF" stroke-width="2.2" stroke-linecap="round" stroke-linejoin="round"/>
<path d="M19.834 3.5L16.334 10.5L18.084 14" stroke="#D2D7DF" stroke-width="2.2" stroke-linecap="round" stroke-linejoin="round"/>
<path d="M2.33398 14H9.91732L11.6673 10.5" stroke="#D2D7DF" stroke-width="2.2" stroke-linecap="round" stroke-linejoin="round"/>
<path d="M23.334 11.667L21.584 14.0003L23.334 16.3337" stroke="#D2D7DF" stroke-width="2.2" stroke-linecap="round" stroke-linejoin="round"/>
<path d="M25.6673 14H18.084L16.334 17.5" stroke="#D2D7DF" stroke-width="2.2" stroke-linecap="round" stroke-linejoin="round"/>
<path d="M4.66602 11.667L6.41602 14.0003L4.66602 16.3337" stroke="#D2D7DF" stroke-width="2.2" stroke-linecap="round" stroke-linejoin="round"/>
<path d="M8.16602 24.5L11.666 17.5L9.91602 14" stroke="#D2D7DF" stroke-width="2.2" stroke-linecap="round" stroke-linejoin="round"/>
<path d="M8.16602 3.5L11.666 10.5H16.3327" stroke="#D2D7DF" stroke-width="2.2" stroke-linecap="round" stroke-linejoin="round"/>
</svg>
