<svg width="30" height="30" viewBox="0 0 30 30" fill="none" xmlns="http://www.w3.org/2000/svg">
<path d="M12.5 25L10.9375 21.875L7.5 22.5" stroke="#3498DB" stroke-width="2.35714" stroke-linecap="round" stroke-linejoin="round"/>
<path d="M12.5 5L10.9375 8.125L7.5 7.5" stroke="#3498DB" stroke-width="2.35714" stroke-linecap="round" stroke-linejoin="round"/>
<path d="M17.5 25L19.0625 21.875L22.5 22.5" stroke="#3498DB" stroke-width="2.35714" stroke-linecap="round" stroke-linejoin="round"/>
<path d="M17.5 5L19.0625 8.125L22.5 7.5" stroke="#3498DB" stroke-width="2.35714" stroke-linecap="round" stroke-linejoin="round"/>
<path d="M21.25 26.25L17.5 18.75H12.5" stroke="#3498DB" stroke-width="2.35714" stroke-linecap="round" stroke-linejoin="round"/>
<path d="M21.25 3.75L17.5 11.25L19.375 15" stroke="#3498DB" stroke-width="2.35714" stroke-linecap="round" stroke-linejoin="round"/>
<path d="M2.5 15H10.625L12.5 11.25" stroke="#3498DB" stroke-width="2.35714" stroke-linecap="round" stroke-linejoin="round"/>
<path d="M25 12.5L23.125 15L25 17.5" stroke="#3498DB" stroke-width="2.35714" stroke-linecap="round" stroke-linejoin="round"/>
<path d="M27.5 15H19.375L17.5 18.75" stroke="#3498DB" stroke-width="2.35714" stroke-linecap="round" stroke-linejoin="round"/>
<path d="M5 12.5L6.875 15L5 17.5" stroke="#3498DB" stroke-width="2.35714" stroke-linecap="round" stroke-linejoin="round"/>
<path d="M8.75 26.25L12.5 18.75L10.625 15" stroke="#3498DB" stroke-width="2.35714" stroke-linecap="round" stroke-linejoin="round"/>
<path d="M8.75 3.75L12.5 11.25H17.5" stroke="#3498DB" stroke-width="2.35714" stroke-linecap="round" stroke-linejoin="round"/>
</svg>
