<svg width="30" height="30" viewBox="0 0 30 30" fill="none" xmlns="http://www.w3.org/2000/svg">
<path d="M5 15.75C5 14.375 5.25542 13.0992 5.76625 11.9225C6.27708 10.7458 7.00083 9.70918 7.9375 8.81251L13.6875 3.15626C13.875 2.98959 14.0833 2.85959 14.3125 2.76626C14.5417 2.67293 14.7708 2.62584 15 2.62501C15.2292 2.62418 15.4583 2.67126 15.6875 2.76626C15.9167 2.86126 16.125 2.99126 16.3125 3.15626L22.0625 8.81251C22.6667 9.41668 23.1929 10.0833 23.6413 10.8125C24.0896 11.5417 24.4279 12.3229 24.6562 13.1563C24.7396 13.4479 24.6825 13.7033 24.485 13.9225C24.2875 14.1417 24.0425 14.2821 23.75 14.3438C23.4575 14.4054 23.145 14.3483 22.8125 14.1725C22.48 13.9967 22.2196 13.6683 22.0312 13.1875C21.8429 12.7067 21.6087 12.2483 21.3288 11.8125C21.0487 11.3767 20.71 10.9808 20.3125 10.625L15 5.37501L9.6875 10.625C8.95833 11.3125 8.41167 12.0888 8.0475 12.9538C7.68333 13.8188 7.50083 14.7508 7.5 15.75C7.5 17.3333 7.97417 18.7604 8.9225 20.0313C9.87083 21.3021 11.0737 22.1979 12.5312 22.7188C13.0104 22.8854 13.3333 23.1354 13.5 23.4688C13.6667 23.8021 13.7292 24.1146 13.6875 24.4063C13.6458 24.6979 13.5158 24.9429 13.2975 25.1413C13.0792 25.3396 12.8237 25.3967 12.5312 25.3125C10.3437 24.75 8.54167 23.5888 7.125 21.8288C5.70833 20.0688 5 18.0425 5 15.75ZM21.7188 19.375C21.3438 19.2083 20.9633 19.0625 20.5775 18.9375C20.1917 18.8125 19.7908 18.75 19.375 18.75C19.0417 18.75 18.7188 18.7867 18.4062 18.86C18.0938 18.9333 17.7917 19.0321 17.5 19.1563C17.2708 19.2604 17.0312 19.2708 16.7812 19.1875C16.5312 19.1042 16.3542 18.9479 16.25 18.7188C16.1458 18.4688 16.1458 18.2188 16.25 17.9688C16.3542 17.7188 16.5312 17.5417 16.7812 17.4375C17.1979 17.2708 17.625 17.1354 18.0625 17.0313C18.5 16.9271 18.9375 16.875 19.375 16.875C19.8542 16.875 20.3283 16.9325 20.7975 17.0475C21.2667 17.1625 21.7196 17.3029 22.1562 17.4688C22.5312 17.6354 22.9117 17.7813 23.2975 17.9063C23.6833 18.0313 24.0842 18.0938 24.5 18.0938C24.8333 18.0938 25.1562 18.0575 25.4688 17.985C25.7812 17.9125 26.0833 17.8133 26.375 17.6875C26.6042 17.5833 26.8437 17.5729 27.0938 17.6563C27.3438 17.7396 27.5208 17.8958 27.625 18.125C27.7292 18.375 27.7292 18.625 27.625 18.875C27.5208 19.125 27.3438 19.3021 27.0938 19.4063C26.6771 19.5729 26.25 19.7083 25.8125 19.8125C25.375 19.9167 24.9375 19.9688 24.5 19.9688C24.0208 19.9688 23.5471 19.9117 23.0787 19.7975C22.6104 19.6833 22.1571 19.5425 21.7188 19.375ZM21.7188 23.125C21.3438 22.9583 20.9633 22.8125 20.5775 22.6875C20.1917 22.5625 19.7908 22.5 19.375 22.5C19.0417 22.5 18.7188 22.5367 18.4062 22.61C18.0938 22.6833 17.7917 22.7821 17.5 22.9063C17.2708 23.0104 17.0312 23.0208 16.7812 22.9375C16.5312 22.8542 16.3542 22.6979 16.25 22.4688C16.1458 22.2188 16.1458 21.9688 16.25 21.7188C16.3542 21.4688 16.5312 21.2917 16.7812 21.1875C17.1979 21.0208 17.625 20.8854 18.0625 20.7813C18.5 20.6771 18.9375 20.625 19.375 20.625C19.8542 20.625 20.3283 20.6821 20.7975 20.7963C21.2667 20.9104 21.7196 21.0513 22.1562 21.2188C22.5312 21.3854 22.9117 21.5313 23.2975 21.6563C23.6833 21.7813 24.0842 21.8438 24.5 21.8438C24.8333 21.8438 25.1562 21.8071 25.4688 21.7338C25.7812 21.6604 26.0833 21.5617 26.375 21.4375C26.6042 21.3333 26.8437 21.3229 27.0938 21.4063C27.3438 21.4896 27.5208 21.6458 27.625 21.875C27.7292 22.125 27.7292 22.375 27.625 22.625C27.5208 22.875 27.3438 23.0521 27.0938 23.1563C26.6771 23.3229 26.25 23.4583 25.8125 23.5625C25.375 23.6667 24.9375 23.7188 24.5 23.7188C24.0208 23.7188 23.5471 23.6617 23.0787 23.5475C22.6104 23.4333 22.1571 23.2925 21.7188 23.125ZM21.7188 26.875C21.3438 26.7083 20.9633 26.5625 20.5775 26.4375C20.1917 26.3125 19.7908 26.25 19.375 26.25C19.0417 26.25 18.7188 26.2867 18.4062 26.36C18.0938 26.4333 17.7917 26.5321 17.5 26.6563C17.2708 26.7604 17.0312 26.7708 16.7812 26.6875C16.5312 26.6042 16.3542 26.4479 16.25 26.2188C16.1458 25.9688 16.1458 25.7188 16.25 25.4688C16.3542 25.2188 16.5312 25.0417 16.7812 24.9375C17.1979 24.7708 17.625 24.6354 18.0625 24.5313C18.5 24.4271 18.9375 24.375 19.375 24.375C19.8542 24.375 20.3283 24.4321 20.7975 24.5463C21.2667 24.6604 21.7196 24.8013 22.1562 24.9688C22.5312 25.1354 22.9117 25.2813 23.2975 25.4063C23.6833 25.5313 24.0842 25.5938 24.5 25.5938C24.8333 25.5938 25.1562 25.5571 25.4688 25.4838C25.7812 25.4104 26.0833 25.3117 26.375 25.1875C26.6042 25.0833 26.8437 25.0729 27.0938 25.1563C27.3438 25.2396 27.5208 25.3958 27.625 25.625C27.7292 25.875 27.7292 26.125 27.625 26.375C27.5208 26.625 27.3438 26.8021 27.0938 26.9063C26.6771 27.0729 26.25 27.2083 25.8125 27.3125C25.375 27.4167 24.9375 27.4688 24.5 27.4688C24.0208 27.4688 23.5471 27.4117 23.0787 27.2975C22.6104 27.1833 22.1571 27.0425 21.7188 26.875Z" fill="#F1C40F"/>
</svg>
