<svg width="30" height="30" viewBox="0 0 30 30" fill="none" xmlns="http://www.w3.org/2000/svg">
<path d="M11.9757 15.7869C10.9959 16.3363 10.1806 17.1371 9.61364 18.1068C9.04672 19.0765 8.74882 20.1799 8.75066 21.3032C8.74742 22.5385 9.10746 23.7476 9.78599 24.7799C10.4645 25.8123 11.4316 26.6224 12.5669 27.1094C13.4432 27.4844 13.8819 27.6719 14.4419 27.2969C15.0019 26.9219 15.0007 26.3094 15.0007 25.0844V18.1257C14.3087 18.1258 13.6362 17.8962 13.0887 17.4729C12.5413 17.0497 12.1498 16.4567 11.9757 15.7869ZM11.8757 15.0007H4.91691C3.69191 15.0007 3.07941 15.0007 2.70441 14.4407C2.32941 13.8819 2.51691 13.4432 2.89191 12.5657C3.37913 11.4306 4.18929 10.4638 5.22163 9.78547C6.25397 9.10717 7.46293 8.74731 8.69816 8.75066C11.0732 8.75066 13.1394 10.0519 14.2144 11.9757C13.5447 12.1498 12.9517 12.5413 12.5284 13.0887C12.1051 13.6362 11.8755 14.3087 11.8757 15.0007ZM15.0007 11.8757V4.91691C15.0007 3.69191 15.0007 3.07941 15.5607 2.70441C16.1194 2.32941 16.5582 2.51691 17.4357 2.89191C18.5707 3.37913 19.5375 4.18929 20.2158 5.22163C20.8941 6.25397 21.254 7.46293 21.2507 8.69816C21.2507 11.0732 19.9494 13.1394 18.0257 14.2144C17.8515 13.5447 17.4601 12.9517 16.9126 12.5284C16.3651 12.1051 15.6927 11.8755 15.0007 11.8757ZM15.7869 18.0257C16.4567 17.8515 17.0497 17.4601 17.4729 16.9126C17.8962 16.3651 18.1258 15.6927 18.1257 15.0007H25.0844C26.3094 15.0007 26.9219 15.0007 27.2969 15.5607C27.6719 16.1194 27.4844 16.5582 27.1094 17.4357C26.6222 18.5707 25.812 19.5375 24.7797 20.2158C23.7473 20.8941 22.5384 21.254 21.3032 21.2507C20.1799 21.2525 19.0765 20.9546 18.1068 20.3877C17.1371 19.8208 16.3363 19.0054 15.7869 18.0257Z" stroke="#8E44AD" stroke-width="2.1" stroke-linejoin="round"/>
<path d="M18.125 15C18.125 15.8288 17.7958 16.6237 17.2097 17.2097C16.6237 17.7958 15.8288 18.125 15 18.125C14.1712 18.125 13.3763 17.7958 12.7903 17.2097C12.2042 16.6237 11.875 15.8288 11.875 15C11.875 14.1712 12.2042 13.3763 12.7903 12.7903C13.3763 12.2042 14.1712 11.875 15 11.875C15.8288 11.875 16.6237 12.2042 17.2097 12.7903C17.7958 13.3763 18.125 14.1712 18.125 15Z" stroke="#8E44AD" stroke-width="1.875"/>
</svg>
