<svg width="28" height="28" viewBox="0 0 28 28" fill="none" xmlns="http://www.w3.org/2000/svg">
<path d="M14.0007 3.5C14.7784 6.61111 16.334 9.13889 18.6673 11.0833C21.0007 13.0278 22.1673 15.1667 22.1673 17.5C22.1673 19.6659 21.3069 21.7432 19.7754 23.2747C18.2438 24.8063 16.1666 25.6667 14.0007 25.6667C11.8347 25.6667 9.75749 24.8063 8.22595 23.2747C6.6944 21.7432 5.83398 19.6659 5.83398 17.5C5.83398 16.2378 6.24336 15.0097 7.00065 14C7.00065 14.7735 7.30794 15.5154 7.85492 16.0624C8.4019 16.6094 9.14377 16.9167 9.91732 16.9167C10.6909 16.9167 11.4327 16.6094 11.9797 16.0624C12.5267 15.5154 12.834 14.7735 12.834 14C12.834 11.6667 11.084 10.5 11.084 8.16667C11.084 6.61111 12.0562 5.05556 14.0007 3.5Z" stroke="#D2D7DF" stroke-width="2.2" stroke-linecap="round" stroke-linejoin="round"/>
</svg>
