<svg width="28" height="28" viewBox="0 0 28 28" fill="none" xmlns="http://www.w3.org/2000/svg">
<path d="M13.9997 10.5006C12.9587 10.4838 11.942 10.8156 11.1113 11.4433C10.2806 12.0709 9.68364 12.9583 9.41538 13.9642C9.14713 14.9702 9.22297 16.037 9.63085 16.9949C10.0387 17.9528 10.7552 18.7468 11.6663 19.2506" stroke="#D2D7DF" stroke-width="2.2" stroke-linecap="round" stroke-linejoin="round"/>
<path d="M14 3.5V5.83333" stroke="#D2D7DF" stroke-width="2.2" stroke-linecap="round" stroke-linejoin="round"/>
<path d="M7.69974 21.4668L6.06641 23.1001" stroke="#D2D7DF" stroke-width="2.2" stroke-linecap="round" stroke-linejoin="round"/>
<path d="M23.334 4.66634V16.963C24.2236 17.4767 24.919 18.2695 25.3121 19.2186C25.7052 20.1677 25.7742 21.22 25.5083 22.2123C25.2424 23.2046 24.6565 24.0814 23.8415 24.7068C23.0265 25.3322 22.0279 25.6711 21.0007 25.6711C19.9734 25.6711 18.9748 25.3322 18.1598 24.7068C17.3448 24.0814 16.7589 23.2046 16.493 22.2123C16.2271 21.22 16.2961 20.1677 16.6892 19.2186C17.0823 18.2695 17.7777 17.4767 18.6673 16.963V4.66634C18.6673 4.0475 18.9132 3.45401 19.3507 3.01643C19.7883 2.57884 20.3818 2.33301 21.0007 2.33301C21.6195 2.33301 22.213 2.57884 22.6506 3.01643C23.0882 3.45401 23.334 4.0475 23.334 4.66634Z" stroke="#D2D7DF" stroke-width="2.2" stroke-linecap="round" stroke-linejoin="round"/>
<path d="M4.66732 15.167H2.33398" stroke="#D2D7DF" stroke-width="2.2" stroke-linecap="round" stroke-linejoin="round"/>
<path d="M7.39695 8.56297L5.75195 6.91797" stroke="#D2D7DF" stroke-width="2.2" stroke-linecap="round" stroke-linejoin="round"/>
</svg>
