<svg width="28" height="28" viewBox="0 0 28 28" fill="none" xmlns="http://www.w3.org/2000/svg">
<path d="M11.6667 23.3337L10.2083 20.417L7 21.0003" stroke="#D2D7DF" stroke-width="2.2" stroke-linecap="round" stroke-linejoin="round"/>
<path d="M11.6667 4.66699L10.2083 7.58366L7 7.00033" stroke="#D2D7DF" stroke-width="2.2" stroke-linecap="round" stroke-linejoin="round"/>
<path d="M12.3485 17.5H11.666" stroke="#D2D7DF" stroke-width="2.2" stroke-linecap="round" stroke-linejoin="round"/>
<path d="M2.33203 14H9.91536L11.6654 10.5" stroke="#D2D7DF" stroke-width="2.2" stroke-linecap="round" stroke-linejoin="round"/>
<path d="M23.332 16.963C24.2217 17.4767 24.917 18.2695 25.3101 19.2186C25.7033 20.1677 25.7722 21.22 25.5064 22.2123C25.2405 23.2046 24.6546 24.0814 23.8396 24.7068C23.0246 25.3322 22.026 25.6711 20.9987 25.6711C19.9714 25.6711 18.9728 25.3322 18.1578 24.7068C17.3428 24.0814 16.7569 23.2046 16.491 22.2123C16.2252 21.22 16.2941 20.1677 16.6873 19.2186C17.0804 18.2695 17.7757 17.4767 18.6654 16.963V4.66634C18.6654 4.0475 18.9112 3.45401 19.3488 3.01643C19.7864 2.57884 20.3799 2.33301 20.9987 2.33301C21.6175 2.33301 22.211 2.57884 22.6486 3.01643C23.0862 3.45401 23.332 4.0475 23.332 4.66634V16.963Z" stroke="#D2D7DF" stroke-width="2.2" stroke-linecap="round" stroke-linejoin="round"/>
<path d="M4.66602 11.667L6.41602 14.0003L4.66602 16.3337" stroke="#D2D7DF" stroke-width="2.2" stroke-linecap="round" stroke-linejoin="round"/>
<path d="M8.16602 24.5L11.666 17.5L9.91602 14" stroke="#D2D7DF" stroke-width="2.2" stroke-linecap="round" stroke-linejoin="round"/>
<path d="M8.16602 3.5L11.666 10.5H13.9993" stroke="#D2D7DF" stroke-width="2.2" stroke-linecap="round" stroke-linejoin="round"/>
</svg>
