<svg width="28" height="28" viewBox="0 0 28 28" fill="none" xmlns="http://www.w3.org/2000/svg">
<path d="M14 8.16699V12.8337" stroke="#D2D7DF" stroke-width="2.2" stroke-linecap="round" stroke-linejoin="round"/>
<path d="M9.3305 10.5039C8.68105 11.3709 8.28588 12.4017 8.18926 13.4807C8.09265 14.5597 8.29841 15.6443 8.78349 16.613C9.26857 17.5816 10.0138 18.396 10.9357 18.965C11.8576 19.534 12.9197 19.835 14.003 19.8343C15.0863 19.8336 16.148 19.5313 17.0692 18.9612C17.9904 18.3911 18.7346 17.5757 19.2185 16.6064C19.7023 15.6372 19.9067 14.5523 19.8088 13.4735C19.7108 12.3946 19.3144 11.3643 18.6638 10.498" stroke="#D2D7DF" stroke-width="2.2" stroke-linecap="round" stroke-linejoin="round"/>
<path d="M13.9987 25.6663C20.442 25.6663 25.6654 20.443 25.6654 13.9997C25.6654 7.55635 20.442 2.33301 13.9987 2.33301C7.55538 2.33301 2.33203 7.55635 2.33203 13.9997C2.33203 20.443 7.55538 25.6663 13.9987 25.6663Z" stroke="#D2D7DF" stroke-width="2.2" stroke-linecap="round" stroke-linejoin="round"/>
</svg>
