<svg width="28" height="28" viewBox="0 0 28 28" fill="none" xmlns="http://www.w3.org/2000/svg">
<path d="M5.83203 10.4997C5.83203 7.22251 5.83203 5.58451 6.61836 4.40734C6.95893 3.89757 7.3966 3.4599 7.90636 3.11934C9.08353 2.33301 10.7204 2.33301 13.9987 2.33301C17.277 2.33301 18.9139 2.33301 20.091 3.11934C20.6008 3.4599 21.0385 3.89757 21.379 4.40734C22.1654 5.58451 22.1654 7.22134 22.1654 10.4997V17.4997C22.1654 20.7768 22.1654 22.4148 21.379 23.592C21.0385 24.1018 20.6008 24.5394 20.091 24.88C18.9139 25.6663 17.277 25.6663 13.9987 25.6663C10.7204 25.6663 9.08353 25.6663 7.90636 24.88C7.3966 24.5394 6.95893 24.1018 6.61836 23.592C5.83203 22.4148 5.83203 20.778 5.83203 17.4997V10.4997Z" stroke="#D2D7DF" stroke-width="2.2"/>
<path d="M17.498 18.083C17.498 19.0113 17.1293 19.9015 16.4729 20.5579C15.8165 21.2143 14.9263 21.583 13.998 21.583C13.0698 21.583 12.1795 21.2143 11.5232 20.5579C10.8668 19.9015 10.498 19.0113 10.498 18.083C10.498 17.1548 10.8668 16.2645 11.5232 15.6081C12.1795 14.9518 13.0698 14.583 13.998 14.583C14.9263 14.583 15.8165 14.9518 16.4729 15.6081C17.1293 16.2645 17.498 17.1548 17.498 18.083Z" stroke="#D2D7DF" stroke-width="2.2"/>
<path d="M12.2493 11.0827C12.2493 11.3921 12.1264 11.6888 11.9076 11.9076C11.6888 12.1264 11.3921 12.2493 11.0827 12.2493C10.7733 12.2493 10.4765 12.1264 10.2577 11.9076C10.0389 11.6888 9.91602 11.3921 9.91602 11.0827C9.91602 10.7733 10.0389 10.4765 10.2577 10.2577C10.4765 10.0389 10.7733 9.91602 11.0827 9.91602C11.3921 9.91602 11.6888 10.0389 11.9076 10.2577C12.1264 10.4765 12.2493 10.7733 12.2493 11.0827Z" fill="#D2D7DF"/>
<path d="M11.0827 8.16634C11.727 8.16634 12.2493 7.64401 12.2493 6.99967C12.2493 6.35534 11.727 5.83301 11.0827 5.83301C10.4384 5.83301 9.91602 6.35534 9.91602 6.99967C9.91602 7.64401 10.4384 8.16634 11.0827 8.16634Z" fill="#D2D7DF"/>
<path d="M18.0814 11.0827C18.0814 11.3921 17.9585 11.6888 17.7397 11.9076C17.5209 12.1264 17.2241 12.2493 16.9147 12.2493C16.6053 12.2493 16.3085 12.1264 16.0898 11.9076C15.871 11.6888 15.748 11.3921 15.748 11.0827C15.748 10.7733 15.871 10.4765 16.0898 10.2577C16.3085 10.0389 16.6053 9.91602 16.9147 9.91602C17.2241 9.91602 17.5209 10.0389 17.7397 10.2577C17.9585 10.4765 18.0814 10.7733 18.0814 11.0827Z" fill="#D2D7DF"/>
<path d="M16.9147 8.16634C17.559 8.16634 18.0814 7.64401 18.0814 6.99967C18.0814 6.35534 17.559 5.83301 16.9147 5.83301C16.2704 5.83301 15.748 6.35534 15.748 6.99967C15.748 7.64401 16.2704 8.16634 16.9147 8.16634Z" fill="#D2D7DF"/>
</svg>
