<svg width="26" height="26" viewBox="0 0 26 26" fill="none" xmlns="http://www.w3.org/2000/svg">
<path d="M19.4993 18.9583C19.8675 19.2345 20.1593 19.6 20.347 20.0202C20.5347 20.4405 20.6122 20.9016 20.5722 21.3601C20.5323 21.8187 20.3761 22.2594 20.1185 22.6408C19.8608 23.0222 19.5103 23.3317 19.0998 23.54C18.6894 23.7483 18.2326 23.8485 17.7727 23.8313C17.3128 23.814 16.8648 23.6799 16.4711 23.4414C16.0774 23.203 15.751 22.8682 15.5227 22.4686C15.2943 22.0689 15.1716 21.6177 15.166 21.1575V13" stroke="#D2D7DF" stroke-width="2.16667" stroke-linecap="round" stroke-linejoin="round"/>
<path d="M6.49935 13H4.33268C3.75805 13 3.20695 12.7717 2.80062 12.3654C2.39429 11.9591 2.16602 11.408 2.16602 10.8333V5.41667C2.16602 4.84203 2.39429 4.29093 2.80062 3.8846C3.20695 3.47827 3.75805 3.25 4.33268 3.25H21.666C22.2406 3.25 22.7917 3.47827 23.1981 3.8846C23.6044 4.29093 23.8327 4.84203 23.8327 5.41667V10.8333C23.8327 11.408 23.6044 11.9591 23.1981 12.3654C22.7917 12.7717 22.2406 13 21.666 13H19.4993" stroke="#D2D7DF" stroke-width="2.16667" stroke-linecap="round" stroke-linejoin="round"/>
<path d="M6.5 8.66699H19.5" stroke="#D2D7DF" stroke-width="2.16667" stroke-linecap="round" stroke-linejoin="round"/>
<path d="M7.15 16.8697C6.89488 17.1197 6.70555 17.429 6.59887 17.7699C6.49218 18.1109 6.47146 18.4729 6.53854 18.8238C6.60561 19.1747 6.75841 19.5035 6.98333 19.7811C7.20824 20.0586 7.49829 20.2763 7.82766 20.4146C8.15703 20.5529 8.5155 20.6077 8.87114 20.574C9.22679 20.5403 9.56858 20.4191 9.86609 20.2214C10.1636 20.0236 10.4076 19.7554 10.5763 19.4405C10.7451 19.1256 10.8334 18.7739 10.8333 18.4167V13" stroke="#D2D7DF" stroke-width="2.16667" stroke-linecap="round" stroke-linejoin="round"/>
</svg>
