<svg width="28" height="28" viewBox="0 0 28 28" fill="none" xmlns="http://www.w3.org/2000/svg">
<path d="M19.8346 22.1663C19.5252 22.1663 19.2285 22.0434 19.0097 21.8246C18.7909 21.6058 18.668 21.3091 18.668 20.9997V18.6663C18.668 18.0475 18.9138 17.454 19.3514 17.0164C19.789 16.5788 20.3825 16.333 21.0013 16.333H23.3346C23.9535 16.333 24.547 16.5788 24.9846 17.0164C25.4221 17.454 25.668 18.0475 25.668 18.6663V20.9997C25.668 21.3091 25.5451 21.6058 25.3263 21.8246C25.1075 22.0434 24.8107 22.1663 24.5013 22.1663H19.8346Z" stroke="#D2D7DF" stroke-width="2.2" stroke-linecap="round" stroke-linejoin="round"/>
<path d="M19.834 24.5003V22.167" stroke="#D2D7DF" stroke-width="2.2" stroke-linecap="round" stroke-linejoin="round"/>
<path d="M22.1673 16.3333V7.58333C22.1673 6.50037 21.7371 5.46175 20.9713 4.69598C20.2056 3.93021 19.167 3.5 18.084 3.5C17.001 3.5 15.9624 3.93021 15.1966 4.69598C14.4309 5.46175 14.0007 6.50037 14.0007 7.58333V20.4167C14.0007 21.4996 13.5704 22.5382 12.8047 23.304C12.0389 24.0698 11.0003 24.5 9.91732 24.5C8.83435 24.5 7.79574 24.0698 7.02997 23.304C6.26419 22.5382 5.83398 21.4996 5.83398 20.4167V11.6667" stroke="#D2D7DF" stroke-width="2.2" stroke-linecap="round" stroke-linejoin="round"/>
<path d="M24.5 24.5003V22.167" stroke="#D2D7DF" stroke-width="2.33333" stroke-linecap="round" stroke-linejoin="round"/>
<path d="M3.5 5.83333V3.5" stroke="#D2D7DF" stroke-width="2.2" stroke-linecap="round" stroke-linejoin="round"/>
<path d="M4.66732 11.6663C4.04848 11.6663 3.45499 11.4205 3.0174 10.9829C2.57982 10.5453 2.33398 9.95185 2.33398 9.33301V6.99967C2.33398 6.69026 2.4569 6.39351 2.67569 6.17472C2.89449 5.95592 3.19123 5.83301 3.50065 5.83301H8.16732C8.47674 5.83301 8.77348 5.95592 8.99228 6.17472C9.21107 6.39351 9.33398 6.69026 9.33398 6.99967V9.33301C9.33398 9.95185 9.08815 10.5453 8.65057 10.9829C8.21298 11.4205 7.61949 11.6663 7.00065 11.6663H4.66732Z" stroke="#D2D7DF" stroke-width="2.2" stroke-linecap="round" stroke-linejoin="round"/>
<path d="M8.16797 5.83333V3.5" stroke="#D2D7DF" stroke-width="2.2" stroke-linecap="round" stroke-linejoin="round"/>
</svg>
